# xmcd CD database file
#
# Track frame offsets:
#	150
#	23540
#	45814
#	67525
#	87722
#	107095
#	124757
#	145212
#	163860
#	189040
#
# Disc length: 2765 seconds
#
# Revision: 0
# Processed by: cddbd v1.5.2PL0 Copyright (c) Steve Scherf et al.
# Submitted via: jetAudio 7
#
DISCID=730acb0a
DTITLE=Brett Barry - Gathering Stones
DYEAR=1900
DGENRE=Country
TTITLE0=Strike The Ground
TTITLE1=Ride That Camel
TTITLE2=True Love
TTITLE3=Even Though
TTITLE4=Only A Prayer Away
TTITLE5=The Flight Of The Arrow
TTITLE6=Gathering Stones
TTITLE7=If It Wasn't For Love
TTITLE8=Psalm 25
TTITLE9=This Old Man
EXTD=
EXTT0=
EXTT1=
EXTT2=
EXTT3=
EXTT4=
EXTT5=
EXTT6=
EXTT7=
EXTT8=
EXTT9=
PLAYORDER=
